<mxfile host="app.diagrams.net" modified="2021-07-23T09:40:57.173Z" agent="5.0 (Windows NT 10.0; Win64; x64) AppleWebKit/537.36 (KHTML, like Gecko) Chrome/92.0.4515.107 Safari/537.36" etag="QFcMKQU1YE1M2VBzj0SQ" version="14.9.2" type="github">
  <diagram id="WNzPgkNoDhFqxfdUoyQ3" name="Page-1">
    <mxGraphModel dx="1846" dy="566" grid="1" gridSize="10" guides="1" tooltips="1" connect="1" arrows="1" fold="1" page="1" pageScale="1" pageWidth="827" pageHeight="1169" math="0" shadow="0">
      <root>
        <mxCell id="0" />
        <mxCell id="1" parent="0" />
        <mxCell id="9uNhV3Xzrq2RpohX5z5X-8" value="" style="rounded=1;whiteSpace=wrap;html=1;shadow=0;strokeColor=#006EAF;strokeWidth=2;fillColor=#1ba1e2;fontColor=#ffffff;" vertex="1" parent="1">
          <mxGeometry x="630" y="390" width="250" height="65" as="geometry" />
        </mxCell>
        <mxCell id="9uNhV3Xzrq2RpohX5z5X-7" value="" style="rounded=1;whiteSpace=wrap;html=1;shadow=0;strokeColor=#006EAF;strokeWidth=2;fillColor=#1ba1e2;fontColor=#ffffff;" vertex="1" parent="1">
          <mxGeometry x="630" y="290" width="210" height="60" as="geometry" />
        </mxCell>
        <mxCell id="FNjcDVKvJcf4eNk8s64a-47" value="" style="rounded=1;whiteSpace=wrap;html=1;shadow=0;fillColor=#fa6800;strokeColor=#C73500;fontColor=#000000;" parent="1" vertex="1">
          <mxGeometry x="40" y="255" width="560" height="385" as="geometry" />
        </mxCell>
        <mxCell id="FNjcDVKvJcf4eNk8s64a-27" value="PDCP" style="rounded=1;whiteSpace=wrap;html=1;fillColor=#d5e8d4;strokeColor=#82b366;" parent="1" vertex="1">
          <mxGeometry x="80" y="280" width="120" height="60" as="geometry" />
        </mxCell>
        <mxCell id="FNjcDVKvJcf4eNk8s64a-69" style="edgeStyle=none;rounded=0;orthogonalLoop=1;jettySize=auto;html=1;exitX=0;exitY=0.5;exitDx=0;exitDy=0;endArrow=none;endFill=0;strokeWidth=2;" parent="1" source="FNjcDVKvJcf4eNk8s64a-28" edge="1">
          <mxGeometry relative="1" as="geometry">
            <mxPoint y="790" as="targetPoint" />
          </mxGeometry>
        </mxCell>
        <mxCell id="FNjcDVKvJcf4eNk8s64a-28" value="&lt;font style=&quot;font-size: 36px&quot;&gt;PHY&lt;/font&gt;" style="rounded=1;whiteSpace=wrap;html=1;fillColor=#fa6800;strokeColor=#C73500;fontColor=#000000;" parent="1" vertex="1">
          <mxGeometry x="40" y="740" width="560" height="100" as="geometry" />
        </mxCell>
        <mxCell id="FNjcDVKvJcf4eNk8s64a-29" value="PDCP" style="rounded=1;whiteSpace=wrap;html=1;fillColor=#d5e8d4;strokeColor=#82b366;" parent="1" vertex="1">
          <mxGeometry x="260" y="280" width="120" height="60" as="geometry" />
        </mxCell>
        <mxCell id="FNjcDVKvJcf4eNk8s64a-31" value="RLC&lt;br&gt;AM mode" style="rounded=1;whiteSpace=wrap;html=1;fillColor=#d5e8d4;strokeColor=#82b366;" parent="1" vertex="1">
          <mxGeometry x="80" y="400" width="120" height="60" as="geometry" />
        </mxCell>
        <mxCell id="FNjcDVKvJcf4eNk8s64a-32" value="RLC&lt;br&gt;UM mode" style="rounded=1;whiteSpace=wrap;html=1;fillColor=#d5e8d4;strokeColor=#82b366;" parent="1" vertex="1">
          <mxGeometry x="260" y="400" width="120" height="60" as="geometry" />
        </mxCell>
        <mxCell id="FNjcDVKvJcf4eNk8s64a-33" value="RLC&lt;br&gt;TM mode" style="rounded=1;whiteSpace=wrap;html=1;fillColor=#d5e8d4;strokeColor=#82b366;" parent="1" vertex="1">
          <mxGeometry x="440" y="400" width="120" height="60" as="geometry" />
        </mxCell>
        <mxCell id="FNjcDVKvJcf4eNk8s64a-68" style="edgeStyle=orthogonalEdgeStyle;rounded=0;orthogonalLoop=1;jettySize=auto;html=1;exitX=0;exitY=0.5;exitDx=0;exitDy=0;endArrow=none;endFill=0;strokeWidth=2;jumpSize=6;" parent="1" source="FNjcDVKvJcf4eNk8s64a-34" edge="1">
          <mxGeometry relative="1" as="geometry">
            <mxPoint y="790" as="targetPoint" />
          </mxGeometry>
        </mxCell>
        <mxCell id="FNjcDVKvJcf4eNk8s64a-34" value="&lt;font face=&quot;Times New Roman&quot; style=&quot;font-size: 36px&quot;&gt;RRC&lt;/font&gt;" style="rounded=1;whiteSpace=wrap;html=1;fillColor=#fa6800;strokeColor=#C73500;fontColor=#000000;" parent="1" vertex="1">
          <mxGeometry x="40" y="80" width="560" height="100" as="geometry" />
        </mxCell>
        <mxCell id="FNjcDVKvJcf4eNk8s64a-42" value="" style="endArrow=classic;startArrow=classic;html=1;exitX=0.5;exitY=0;exitDx=0;exitDy=0;strokeWidth=2;entryX=0.821;entryY=1.01;entryDx=0;entryDy=0;entryPerimeter=0;" parent="1" source="FNjcDVKvJcf4eNk8s64a-33" target="FNjcDVKvJcf4eNk8s64a-34" edge="1">
          <mxGeometry width="50" height="50" relative="1" as="geometry">
            <mxPoint x="390" y="370" as="sourcePoint" />
            <mxPoint x="500" y="230" as="targetPoint" />
          </mxGeometry>
        </mxCell>
        <mxCell id="FNjcDVKvJcf4eNk8s64a-43" value="" style="endArrow=classic;startArrow=classic;html=1;strokeWidth=2;" parent="1" edge="1">
          <mxGeometry width="50" height="50" relative="1" as="geometry">
            <mxPoint x="320" y="280" as="sourcePoint" />
            <mxPoint x="320" y="180" as="targetPoint" />
          </mxGeometry>
        </mxCell>
        <mxCell id="FNjcDVKvJcf4eNk8s64a-44" value="" style="endArrow=classic;startArrow=classic;html=1;entryX=0.177;entryY=1.01;entryDx=0;entryDy=0;strokeWidth=3;entryPerimeter=0;" parent="1" target="FNjcDVKvJcf4eNk8s64a-34" edge="1">
          <mxGeometry width="50" height="50" relative="1" as="geometry">
            <mxPoint x="140" y="280" as="sourcePoint" />
            <mxPoint x="139.5" y="220" as="targetPoint" />
          </mxGeometry>
        </mxCell>
        <mxCell id="FNjcDVKvJcf4eNk8s64a-45" value="" style="endArrow=classic;startArrow=classic;html=1;entryX=0.75;entryY=1;entryDx=0;entryDy=0;strokeWidth=2;" parent="1" edge="1">
          <mxGeometry width="50" height="50" relative="1" as="geometry">
            <mxPoint x="140" y="400" as="sourcePoint" />
            <mxPoint x="139.5" y="340" as="targetPoint" />
          </mxGeometry>
        </mxCell>
        <mxCell id="FNjcDVKvJcf4eNk8s64a-46" value="" style="endArrow=classic;startArrow=classic;html=1;entryX=0.75;entryY=1;entryDx=0;entryDy=0;strokeWidth=2;" parent="1" edge="1">
          <mxGeometry width="50" height="50" relative="1" as="geometry">
            <mxPoint x="320" y="400" as="sourcePoint" />
            <mxPoint x="319.5" y="340" as="targetPoint" />
          </mxGeometry>
        </mxCell>
        <mxCell id="FNjcDVKvJcf4eNk8s64a-49" value="&lt;font style=&quot;font-size: 24px&quot;&gt;MAC&lt;/font&gt;" style="rounded=1;whiteSpace=wrap;html=1;fillColor=#d5e8d4;strokeColor=#82b366;" parent="1" vertex="1">
          <mxGeometry x="80" y="560" width="480" height="50" as="geometry" />
        </mxCell>
        <mxCell id="FNjcDVKvJcf4eNk8s64a-50" value="" style="endArrow=classic;startArrow=classic;html=1;entryX=0.496;entryY=1;entryDx=0;entryDy=0;strokeWidth=2;entryPerimeter=0;" parent="1" target="FNjcDVKvJcf4eNk8s64a-31" edge="1">
          <mxGeometry width="50" height="50" relative="1" as="geometry">
            <mxPoint x="140" y="560" as="sourcePoint" />
            <mxPoint x="139.5" y="500" as="targetPoint" />
          </mxGeometry>
        </mxCell>
        <mxCell id="FNjcDVKvJcf4eNk8s64a-51" value="" style="endArrow=classic;startArrow=classic;html=1;entryX=0.75;entryY=1;entryDx=0;entryDy=0;strokeWidth=2;exitX=0.5;exitY=0;exitDx=0;exitDy=0;" parent="1" source="FNjcDVKvJcf4eNk8s64a-49" edge="1">
          <mxGeometry width="50" height="50" relative="1" as="geometry">
            <mxPoint x="320" y="520" as="sourcePoint" />
            <mxPoint x="319.5" y="460" as="targetPoint" />
          </mxGeometry>
        </mxCell>
        <mxCell id="FNjcDVKvJcf4eNk8s64a-52" value="" style="endArrow=classic;startArrow=classic;html=1;entryX=0.75;entryY=1;entryDx=0;entryDy=0;strokeWidth=2;exitX=0.877;exitY=0.04;exitDx=0;exitDy=0;exitPerimeter=0;" parent="1" source="FNjcDVKvJcf4eNk8s64a-49" edge="1">
          <mxGeometry width="50" height="50" relative="1" as="geometry">
            <mxPoint x="500" y="520" as="sourcePoint" />
            <mxPoint x="499.5" y="460" as="targetPoint" />
          </mxGeometry>
        </mxCell>
        <mxCell id="FNjcDVKvJcf4eNk8s64a-55" value="Logical Channels" style="ellipse;whiteSpace=wrap;html=1;shadow=0;fillColor=#f8cecc;strokeColor=#b85450;" parent="1" vertex="1">
          <mxGeometry x="115" y="490" width="410" height="40" as="geometry" />
        </mxCell>
        <mxCell id="FNjcDVKvJcf4eNk8s64a-56" value="" style="endArrow=classic;startArrow=classic;html=1;entryX=0.75;entryY=1;entryDx=0;entryDy=0;strokeWidth=2;exitX=0.877;exitY=0.04;exitDx=0;exitDy=0;exitPerimeter=0;" parent="1" edge="1">
          <mxGeometry width="50" height="50" relative="1" as="geometry">
            <mxPoint x="500.73" y="742" as="sourcePoint" />
            <mxPoint x="499.27" y="640" as="targetPoint" />
          </mxGeometry>
        </mxCell>
        <mxCell id="FNjcDVKvJcf4eNk8s64a-57" value="" style="endArrow=classic;startArrow=classic;html=1;entryX=0.75;entryY=1;entryDx=0;entryDy=0;strokeWidth=2;exitX=0.877;exitY=0.04;exitDx=0;exitDy=0;exitPerimeter=0;" parent="1" edge="1">
          <mxGeometry width="50" height="50" relative="1" as="geometry">
            <mxPoint x="320.73" y="742" as="sourcePoint" />
            <mxPoint x="319.27" y="640" as="targetPoint" />
          </mxGeometry>
        </mxCell>
        <mxCell id="FNjcDVKvJcf4eNk8s64a-58" value="" style="endArrow=classic;startArrow=classic;html=1;entryX=0.75;entryY=1;entryDx=0;entryDy=0;strokeWidth=2;exitX=0.877;exitY=0.04;exitDx=0;exitDy=0;exitPerimeter=0;" parent="1" edge="1">
          <mxGeometry width="50" height="50" relative="1" as="geometry">
            <mxPoint x="140.73000000000002" y="740" as="sourcePoint" />
            <mxPoint x="139.26999999999998" y="638" as="targetPoint" />
          </mxGeometry>
        </mxCell>
        <mxCell id="FNjcDVKvJcf4eNk8s64a-59" value="Transport Channels" style="ellipse;whiteSpace=wrap;html=1;shadow=0;fillColor=#f8cecc;strokeColor=#b85450;" parent="1" vertex="1">
          <mxGeometry x="115" y="670" width="410" height="40" as="geometry" />
        </mxCell>
        <mxCell id="FNjcDVKvJcf4eNk8s64a-60" value="" style="endArrow=none;dashed=1;html=1;strokeWidth=2;" parent="1" edge="1">
          <mxGeometry width="50" height="50" relative="1" as="geometry">
            <mxPoint x="30" y="270" as="sourcePoint" />
            <mxPoint x="720" y="270" as="targetPoint" />
          </mxGeometry>
        </mxCell>
        <mxCell id="FNjcDVKvJcf4eNk8s64a-61" value="" style="endArrow=none;dashed=1;html=1;strokeWidth=2;" parent="1" edge="1">
          <mxGeometry width="50" height="50" relative="1" as="geometry">
            <mxPoint x="30" y="370" as="sourcePoint" />
            <mxPoint x="720" y="370" as="targetPoint" />
          </mxGeometry>
        </mxCell>
        <mxCell id="FNjcDVKvJcf4eNk8s64a-62" value="" style="endArrow=none;dashed=1;html=1;strokeWidth=2;" parent="1" edge="1">
          <mxGeometry width="50" height="50" relative="1" as="geometry">
            <mxPoint x="30" y="480" as="sourcePoint" />
            <mxPoint x="720" y="480" as="targetPoint" />
          </mxGeometry>
        </mxCell>
        <mxCell id="FNjcDVKvJcf4eNk8s64a-63" value="" style="endArrow=none;dashed=1;html=1;strokeWidth=2;" parent="1" edge="1">
          <mxGeometry width="50" height="50" relative="1" as="geometry">
            <mxPoint x="30" y="720" as="sourcePoint" />
            <mxPoint x="720" y="720" as="targetPoint" />
          </mxGeometry>
        </mxCell>
        <mxCell id="FNjcDVKvJcf4eNk8s64a-65" value="" style="shape=singleArrow;direction=south;whiteSpace=wrap;html=1;shadow=0;gradientColor=#b3b3b3;fillColor=#f5f5f5;strokeColor=#666666;" parent="1" vertex="1">
          <mxGeometry x="150" y="840" width="340" height="60" as="geometry" />
        </mxCell>
        <mxCell id="FNjcDVKvJcf4eNk8s64a-66" value="&lt;font style=&quot;font-size: 18px&quot;&gt;Physical Channels&lt;/font&gt;" style="ellipse;whiteSpace=wrap;html=1;shadow=0;fillColor=#f8cecc;strokeColor=#b85450;" parent="1" vertex="1">
          <mxGeometry x="40" y="910" width="560" height="60" as="geometry" />
        </mxCell>
        <mxCell id="FNjcDVKvJcf4eNk8s64a-67" value="Radio Bearers" style="ellipse;whiteSpace=wrap;html=1;shadow=0;fillColor=#f8cecc;strokeColor=#b85450;" parent="1" vertex="1">
          <mxGeometry x="115" y="200" width="410" height="40" as="geometry" />
        </mxCell>
        <mxCell id="FNjcDVKvJcf4eNk8s64a-70" value="" style="line;strokeWidth=1;html=1;perimeter=backbonePerimeter;points=[];outlineConnect=0;shadow=0;" parent="1" vertex="1">
          <mxGeometry y="305" width="80" height="10" as="geometry" />
        </mxCell>
        <mxCell id="FNjcDVKvJcf4eNk8s64a-71" value="" style="line;strokeWidth=2;html=1;perimeter=backbonePerimeter;points=[];outlineConnect=0;shadow=0;" parent="1" vertex="1">
          <mxGeometry y="425" width="80" height="10" as="geometry" />
        </mxCell>
        <mxCell id="FNjcDVKvJcf4eNk8s64a-72" value="" style="line;strokeWidth=2;html=1;perimeter=backbonePerimeter;points=[];outlineConnect=0;shadow=0;" parent="1" vertex="1">
          <mxGeometry y="584.5" width="80" height="10" as="geometry" />
        </mxCell>
        <mxCell id="9uNhV3Xzrq2RpohX5z5X-2" value="&lt;font style=&quot;font-size: 36px&quot; color=&quot;#ff3333&quot;&gt;Control&lt;/font&gt;" style="text;html=1;align=center;verticalAlign=middle;resizable=0;points=[];autosize=1;strokeColor=none;rotation=270;" vertex="1" parent="1">
          <mxGeometry x="-100" y="420" width="130" height="30" as="geometry" />
        </mxCell>
        <mxCell id="9uNhV3Xzrq2RpohX5z5X-4" value="&lt;font style=&quot;font-size: 18px&quot;&gt;Header De-Compression&lt;br&gt;De-Ciphering&lt;/font&gt;" style="text;html=1;align=center;verticalAlign=middle;resizable=0;points=[];autosize=1;strokeColor=none;" vertex="1" parent="1">
          <mxGeometry x="630" y="300" width="210" height="40" as="geometry" />
        </mxCell>
        <mxCell id="9uNhV3Xzrq2RpohX5z5X-6" value="&lt;font style=&quot;font-size: 18px&quot;&gt;segmentation, concatenation, &lt;br&gt;and reassembly&lt;br&gt;ARQ&lt;/font&gt;" style="text;html=1;align=center;verticalAlign=middle;resizable=0;points=[];autosize=1;strokeColor=none;" vertex="1" parent="1">
          <mxGeometry x="630" y="400" width="250" height="50" as="geometry" />
        </mxCell>
      </root>
    </mxGraphModel>
  </diagram>
</mxfile>
